<svg width="119" height="147" viewBox="0 0 119 147" fill="none" xmlns="http://www.w3.org/2000/svg">
<mask id="mask0_206_51" style="mask-type:alpha" maskUnits="userSpaceOnUse" x="0" y="9" width="119" height="138">
<path d="M68.8071 9.98232L118.076 25.0401L80.8382 146.88L0.943138 122.462L26.0734 40.2367C35.5201 44.5799 41.9509 41.0854 43.9855 38.7953C51.7901 40.8894 56.2818 31.5123 57.5521 26.562C66.7254 27.0361 68.8776 15.7064 68.8071 9.98232Z" fill="#82563D"/>
</mask>
<g mask="url(#mask0_206_51)">
<path d="M68.8071 9.98232L118.076 25.0401L80.8382 146.88L0.943138 122.462L26.0734 40.2367C35.5201 44.5799 41.9509 41.0854 43.9855 38.7953C51.7901 40.8894 56.2818 31.5123 57.5521 26.562C66.7254 27.0361 68.8776 15.7064 68.8071 9.98232Z" fill="#82563D"/>
<rect x="19.1445" y="84.3459" width="20.8858" height="34.1135" transform="rotate(16.9945 19.1445 84.3459)" fill="#613E2B"/>
<rect x="30.7422" y="46.3958" width="20.8858" height="34.8097" transform="rotate(16.9945 30.7422 46.3958)" fill="#613E2B"/>
<rect x="42.1377" y="9.11133" width="20.8858" height="34.1135" transform="rotate(16.9945 42.1377 9.11133)" fill="#613E2B"/>
<rect x="43.1133" y="91.6714" width="20.8858" height="34.1135" transform="rotate(16.9945 43.1133 91.6714)" fill="#613E2B"/>
<rect x="54.7109" y="53.7209" width="20.8858" height="34.8097" transform="rotate(16.9945 54.7109 53.7209)" fill="#613E2B"/>
<rect x="66.1064" y="16.4365" width="20.8858" height="34.1135" transform="rotate(16.9945 66.1064 16.4365)" fill="#613E2B"/>
<rect x="66.416" y="98.7935" width="20.8858" height="34.1135" transform="rotate(16.9945 66.416 98.7935)" fill="#613E2B"/>
<rect x="78.0137" y="60.843" width="20.8858" height="34.8097" transform="rotate(16.9945 78.0137 60.843)" fill="#613E2B"/>
<rect x="89.4092" y="23.5586" width="20.8858" height="34.1135" transform="rotate(16.9945 89.4092 23.5586)" fill="#613E2B"/>
</g>
<path d="M22.8065 23.0578L27.7054 31.3978L13.2776 28.8707L22.8065 23.0578Z" fill="#82563D"/>
<path d="M33.6905 7.93685L41.1369 11.8024L37.6885 22.576L31.0725 14.551L33.6905 7.93685Z" fill="#82563D"/>
</svg>
