<svg width="158" height="77" viewBox="0 0 158 77" fill="none" xmlns="http://www.w3.org/2000/svg">
<path d="M157.976 44.7942C157.976 50.5206 149.2 59.3644 147.543 60.5207C133.981 69.9817 108.559 76.351 79.4341 76.351C53.2009 76.351 19.9756 65.6196 15.7075 63.244C6.38554 58.0552 0.892578 47.0345 0.892578 44.7942C0.892578 38.6496 5.2635 32.9152 12.8243 28.0655C26.7086 19.1596 51.35 13.2373 79.4341 13.2373C122.811 13.2373 157.976 27.3658 157.976 44.7942Z" fill="#FFF1D8"/>
<path d="M145.353 41.9892C145.353 50.2655 120.986 62.4959 120.986 62.4959C120.986 62.4959 95.1862 68.4035 79.4344 68.4035C75.9348 68.4035 53.228 66.7573 42.7389 63.9356C33.8577 61.5465 20.4503 55.4743 20.4503 55.4743C20.4503 55.4743 13.5156 46.5261 13.5156 41.9892C13.5156 27.401 43.0285 15.575 79.4344 15.575C115.84 15.575 145.353 27.401 145.353 41.9892Z" fill="#E9A858"/>
<path d="M135.301 35.2101C135.301 52.5093 110.497 60.923 79.9008 60.923C49.3043 60.923 24.501 52.5093 24.501 35.2101C24.501 17.9108 49.3043 3.88696 79.9008 3.88696C110.497 3.88696 135.301 17.9108 135.301 35.2101Z" fill="white"/>
<path d="M32.2155 16.9774C23.8003 23.1485 22.3199 34.1973 22.6315 38.9503V45.4955L38.2932 56.0144C38.2932 56.0144 42.7382 46.5604 45.7733 43.1579C48.8085 39.7555 56.9935 36.6128 56.9935 36.6128C60.344 36.0674 68.2138 35.3038 72.8889 36.6128C77.5639 37.9218 80.5248 42.8462 81.7715 43.8592L90.8879 52.0406L96.9656 49.2355C96.9656 49.2355 100.12 41.3439 103.511 38.9503C106.902 36.5568 111.458 36.6128 111.458 36.6128L122.679 38.9503H129.925C133.587 38.0153 137.743 33.3402 136.236 29.6002C131.804 18.6004 122.182 11.4058 108.182 6.9635C105.81 6.21115 95.5279 3.69248 88.0829 2.71837C70.3912 0.403572 52.697 5.76912 43.8449 10.0449C40.3671 11.7248 35.294 14.7198 32.2155 16.9774Z" fill="#E9A858"/>
<path d="M60.2658 9.96484H66.8109V18.6138L58.8633 17.6787L60.2658 9.96484Z" fill="#FC7941"/>
<path d="M92.1615 14.1981L97.026 9.81911L102.813 16.2471L96.2801 20.8696L92.1615 14.1981Z" fill="#FC7941"/>
<path d="M74.8666 4.526L79.7311 0.146993L85.5176 6.57503L78.9852 11.1975L74.8666 4.526Z" fill="#FC7941"/>
<path d="M30.2775 42.587L36.6764 43.9625L34.8588 52.4182L27.2851 49.8339L30.2775 42.587Z" fill="#FC7941"/>
<circle cx="76.8829" cy="20.9519" r="2.37113" fill="#3BF072"/>
<circle cx="29.46" cy="35.1788" r="2.37113" fill="#3BF072"/>
<circle cx="65.501" cy="3.87992" r="2.37113" fill="#3BF072"/>
<circle cx="111.976" cy="18.1067" r="2.37113" fill="#3BF072"/>
</svg>
