<svg width="147" height="135" viewBox="0 0 147 135" fill="none" xmlns="http://www.w3.org/2000/svg">
<path fill-rule="evenodd" clip-rule="evenodd" d="M26.9248 0L39.9757 6.08595L38.9248 10.2932L31.8267 7.37441L34.7757 19.352L37.9757 25.6863L31.5757 32.4164L21.5757 34L15.9757 29.6452L18.3757 22.915L27.9757 19.352L26.9248 0ZM89.2592 28.7485C89.2592 39.3366 80.6759 47.9199 70.0878 47.9199C59.4998 47.9199 50.9164 39.3366 50.9164 28.7485C50.9164 18.1605 59.4998 9.57715 70.0878 9.57715C80.6759 9.57715 89.2592 18.1605 89.2592 28.7485ZM84.3213 50.5961H62.9915C62.9915 50.5961 55.3405 50.3778 48.3974 51.5792C41.4543 52.7806 32.167 59.8118 32.167 59.8118C32.167 59.8118 24.5249 70.0549 24.4481 76.4164C24.4366 77.3696 24.4097 78.351 24.3826 79.3378L24.3826 79.3379C24.2291 84.9371 24.0707 90.7117 26.6933 92.5074C29.7782 94.6195 36.4227 92.5074 36.4227 92.5074V82.778C36.4227 82.778 36.7648 76.2247 39.4164 72.3954C42.068 68.5661 51.0168 66.4081 51.0168 66.4081L53.9663 79.3148L51.0168 92.2216L49.9895 111.123L34.9259 120.199L39.4164 132.782L54.9937 127.543L66.6894 113.881L68.2304 95.3547C68.2304 95.3547 77.6809 100.558 82.3108 103.734C86.9408 106.909 89.9345 114.395 89.9345 114.395L86.9408 131.799C86.9408 131.799 97.7928 137.038 101.161 131.799C104.472 126.648 104.498 120.412 104.527 113.447L104.529 113.089C104.558 106.332 103.18 103.969 101.437 100.98L101.435 100.977L101.306 100.755C101.279 100.708 101.251 100.661 101.224 100.614C101.203 100.578 101.182 100.541 101.161 100.505C99.2897 97.2768 87.9682 87.8264 87.9682 87.8264L89.2779 76.3688L89.6045 64.9112C93.596 64.0381 105.951 58.3796 111.639 50.5961C117.326 42.8126 118.25 31.1373 118.748 23.6531L110.142 19.911L103.032 41.9893L84.3213 50.5961ZM141.195 62H122.888L119.971 78.5499H112.564L107.976 83.2499L110.27 90.3L120.593 91.0833L125.946 88.7333L126.711 81.6832L124.417 78.5499L125.946 69.1498H137.514V81.6832L129.77 85.9916V91.0833L135.505 95L143.152 92.2583L146.976 85.9916L145.064 80.1165H142.725L141.195 62ZM16.1751 86.3297L1.56756 84.4923L8.77263 103.13L0.597316 109.66L0.419934 117.017L7.24512 119.514L16.4412 114.799L20.4995 106.176L15.3702 100.979L8.68051 90.1707L16.5003 90.7865L16.1751 86.3297Z" fill="#FFEC9E"/>
</svg>
