<svg width="150" height="117" viewBox="0 0 150 117" fill="none" xmlns="http://www.w3.org/2000/svg">
<path d="M124.198 3.73009C109.425 -2.13876 94.4022 -0.869032 86.5588 6.04206C82.8113 5.25417 78.9497 4.83644 75.0031 4.83644C71.0565 4.83644 67.1887 5.25417 63.4412 6.04412C55.5998 -0.869033 40.5745 -2.13669 25.8022 3.73215C7.38197 11.0486 -3.67184 26.6967 1.11676 38.6784C3.35034 44.2681 8.6346 48.0711 15.5075 49.7978C13.2054 56.4008 11.9528 63.3263 11.9528 70.2747C11.9528 103.273 40.1805 117 75.0031 117C109.826 117 138.053 103.273 138.053 70.2747C138.053 63.3243 136.801 56.3987 134.499 49.7957C141.37 48.069 146.652 44.264 148.883 38.6784C153.672 26.6967 142.618 11.0486 124.198 3.73009Z" fill="#FFF981"/>
</svg>
