<svg width="123" height="123" viewBox="0 0 123 123" fill="none" xmlns="http://www.w3.org/2000/svg">
<path opacity="0.5" d="M112.547 63.4082C111.408 62.3857 111.408 60.6123 112.547 59.5918C121.028 51.988 126.107 38.3458 120.884 27.7239C117.794 21.4429 113.01 17.8014 108.095 17.0258C107.003 16.853 106.147 15.9971 105.974 14.9047C105.199 9.98974 101.557 5.20441 95.2761 2.11636C84.6542 -3.10718 71.0141 1.97029 63.4082 10.4526C62.3857 11.5924 60.6123 11.5924 59.5918 10.4526C51.988 1.97235 38.3458 -3.10718 27.7239 2.11636C21.4429 5.20647 17.8014 9.98974 17.0258 14.9047C16.853 15.9971 15.9971 16.853 14.9047 17.0258C9.98974 17.8014 5.20441 21.4429 2.11636 27.7239C-3.10718 38.3458 1.9703 51.9859 10.4526 59.5918C11.5924 60.6143 11.5924 62.3877 10.4526 63.4082C1.97235 71.012 -3.10718 84.6542 2.11636 95.2761C5.20647 101.557 9.98974 105.199 14.9047 105.974C15.9971 106.147 16.853 107.003 17.0258 108.095C17.8014 113.01 21.4429 117.796 27.7239 120.884C38.3458 126.107 51.9859 121.03 59.5918 112.547C60.6143 111.408 62.3877 111.408 63.4082 112.547C71.012 121.028 84.6542 126.107 95.2761 120.884C101.557 117.794 105.199 113.01 105.974 108.095C106.147 107.003 107.003 106.147 108.095 105.974C113.01 105.199 117.796 101.557 120.884 95.2761C126.107 84.6542 121.03 71.0141 112.547 63.4082Z" fill="#27FC8B"/>
</svg>
