<svg width="800" height="621" viewBox="0 0 800 621" fill="none" xmlns="http://www.w3.org/2000/svg">
<path d="M221.753 11.807C302.058 18.2732 383.982 67.097 383.982 67.097C383.982 67.097 439.606 20.1265 470.749 8.8445C527.638 -11.7643 666.264 8.84356 681.955 18.2732C733.96 49.522 801.206 169.737 799.984 219.052C795.538 398.382 703.963 483.368 703.963 483.368C612.918 601.098 416.269 619.955 416.269 619.955C416.269 619.955 183.766 643.527 79.2294 466.74C79.2294 466.74 24.2107 384.239 2.2023 258.433C2.2023 258.433 -17.054 165.023 58.3142 73.0077C58.3142 73.0077 145.253 11.807 221.753 11.807Z" fill="#FA5377"/>
</svg>
