<svg width="153" height="171" viewBox="0 0 153 171" fill="none" xmlns="http://www.w3.org/2000/svg">
<path d="M13.7836 43.1662L22.7208 33.153L32.6725 36.8448L54.715 29.0295C66.0176 30.8293 95.6071 33.1857 106.878 41.8317C123.465 54.5555 131.422 76.8415 131.517 88.8871L126.446 121.217L130.369 131.995L122.06 141.154L113.354 135.809L91.8261 137.886C83.6 136.815 60.0013 141.082 39.2246 119.23C22.4088 101.543 14.0662 80.746 17.9993 57.8441L13.7836 43.1662Z" fill="#FFFD78"/>
<ellipse cx="66.2131" cy="41.4154" rx="4.74227" ry="2.84536" transform="rotate(26.2434 66.2131 41.4154)" fill="#F0ED39"/>
<ellipse cx="50.089" cy="43.3121" rx="4.74227" ry="2.84536" transform="rotate(26.2434 50.089 43.3121)" fill="#F0ED39"/>
<ellipse cx="73.8009" cy="52.7967" rx="4.74227" ry="2.84536" transform="rotate(26.2434 73.8009 52.7967)" fill="#F0ED39"/>
</svg>
