<svg width="153" height="171" viewBox="0 0 153 171" fill="none" xmlns="http://www.w3.org/2000/svg">
<path d="M14.0375 43.1662L22.9747 33.153L32.9264 36.8448L54.9689 29.0295C66.2715 30.8293 95.861 33.1857 107.132 41.8317C123.719 54.5555 131.676 76.8415 131.771 88.8871L126.7 121.217L130.623 131.995L122.314 141.154L113.608 135.809L92.08 137.886C83.8539 136.815 60.2553 141.082 39.4785 119.23C22.6627 101.543 14.3201 80.746 18.2532 57.8441L14.0375 43.1662Z" fill="#FFFD78"/>
<ellipse cx="66.467" cy="41.4154" rx="4.74227" ry="2.84536" transform="rotate(26.2434 66.467 41.4154)" fill="#F0ED39"/>
<ellipse cx="50.3429" cy="43.3121" rx="4.74227" ry="2.84536" transform="rotate(26.2434 50.3429 43.3121)" fill="#F0ED39"/>
<ellipse cx="74.0548" cy="52.7967" rx="4.74227" ry="2.84536" transform="rotate(26.2434 74.0548 52.7967)" fill="#F0ED39"/>
</svg>
