<svg width="312" height="162" viewBox="0 0 312 162" fill="none" xmlns="http://www.w3.org/2000/svg">
<g filter="url(#filter0_d_241_160)">
<path d="M46.6637 40.9216L52.3074 30.9282C52.3074 30.9282 42.3753 16.3318 27.4524 18.6346C20.7524 19.6691 14.7383 23.2506 11.8985 27.0321C9.05869 30.8135 2.69452 39.3794 3.60968 58.8319C3.9042 65.0907 9.97563 76.9606 9.97563 76.9606L17.5896 81.1804C17.5896 81.1804 23.6939 82.9501 26.3122 82.6978C28.9285 82.4457 35.8251 81.5496 38.1011 80.3061C40.3773 79.0646 52.3939 72.5136 55.2029 70.219C55.2029 70.219 51.887 62.3623 47.5504 59.1678C47.5504 59.1678 37.4774 69.1069 33.5457 75.3967L21.2946 73.351C19.7283 70.2732 17.6523 63.6084 17.3204 61.4425C14.8317 45.1822 23.8564 28.7228 23.8564 28.7228C23.8564 28.7228 26.0801 25.5617 29.9502 25.6941C29.9502 25.6941 33.6641 27.3485 40.8371 36.8759C42.135 38.5998 46.6638 40.9236 46.6638 40.9236L46.6637 40.9216Z" fill="white"/>
<path d="M61.2417 21.106L66.1445 31.9882L76.1663 25.1153C79.9079 23.7742 81.9187 28.1407 83.7044 31.8508C89.8743 44.6539 84.171 61.1262 76.3938 65.6225L66.4106 62.8498L62.3156 52.7939L67.902 36.076L55.459 33.0407C55.459 33.0407 51.9585 47.1474 51.9979 50.4307C52.0294 53.087 52.0594 58.0464 55.7905 62.415C59.5219 66.7856 63.2103 70.091 63.2103 70.091L72.1069 71.8866C72.1069 71.8866 84.0534 70.8891 88.8072 65.1383C89.6171 64.1569 94.9762 51.3444 95.783 47.0752C96.8944 41.1962 91.9747 24.3625 84.9794 18.984C83.0872 17.5296 76.8913 16.9322 74.5622 17.4544L61.2419 21.1101L61.2417 21.106Z" fill="white"/>
<path d="M180.27 17.8824L182.303 29.6561L155.283 31.5676L157.353 42.5649L166.399 40.7003C174.017 39.5297 181.658 42.2407 181.658 42.2407L179.518 52.9225L158.918 50.3383L161.55 75.8332L147.656 75.1691L148.701 28.666L153.516 20.1427L180.266 17.8806L180.27 17.8824Z" fill="white"/>
<path d="M212.433 22.1282L211.724 12.0989L186.348 14.4932C186.348 14.4932 187.199 21.7017 187.059 24.5347C186.918 27.3676 186.48 33.2984 186.64 41.5835C186.798 49.8687 187.462 66.0103 187.462 66.0103L195.683 69.0803L224.676 63.4405L222.348 51.2328L198.478 59.8328L195.914 41.2259C195.914 41.2259 218.353 44.6204 223.638 43.1721L222.011 32.2552C222.011 32.2552 210.918 34.4941 204.187 34.2006C197.456 33.9071 195.038 34.5533 195.038 34.5533L193.599 21.4968L212.434 22.1302L212.433 22.1282Z" fill="white"/>
<path d="M305.942 3.08969L295.114 1.58107L292.608 15.3168L294.261 27.3408L290.577 63.0494L306.599 60.151L305.007 33.5467C302.687 23.9745 301.815 22.2165 301.957 20.1126L303.488 16.182L305.943 3.08752L305.942 3.08969Z" fill="white"/>
<path d="M96.0113 105.316L100.394 115.045L109.352 108.902C112.698 107.702 114.493 111.607 116.09 114.922C121.606 126.368 116.508 141.093 109.554 145.111L100.629 142.631L96.9672 133.641L101.96 118.696L90.8375 115.981C90.8375 115.981 87.7084 128.591 87.7435 131.528C87.7713 133.902 87.7986 138.336 91.1355 142.241C94.4705 146.148 97.7685 149.101 97.7685 149.101L105.721 150.705C105.721 150.705 116.4 149.814 120.65 144.671C121.374 143.796 126.165 132.341 126.886 128.523C127.879 123.268 123.482 108.219 117.228 103.411C115.535 102.111 109.998 101.577 107.917 102.045L96.009 105.313L96.0113 105.316Z" fill="white"/>
<path d="M191.946 98.5293L196.328 108.258L205.287 102.114C208.632 100.915 210.428 104.82 212.025 108.135C217.54 119.581 212.443 134.306 205.489 138.324L196.564 135.844L192.902 126.854L197.895 111.909L186.772 109.194C186.772 109.194 183.643 121.804 183.678 124.741C183.706 127.115 183.733 131.548 187.07 135.453C190.405 139.361 193.703 142.314 193.703 142.314L201.656 143.918C201.656 143.918 212.335 143.027 216.585 137.884C217.309 137.008 222.1 125.554 222.821 121.736C223.814 116.481 219.417 101.432 213.162 96.6242C211.47 95.3243 205.932 94.7899 203.851 95.258L191.944 98.5254L191.946 98.5293Z" fill="white"/>
<path d="M235.423 92.2144L221.436 93.5918L228.494 129.351C228.494 129.351 230.922 135.645 235.567 137.925C240.213 140.204 244.381 143.948 255.285 136.53C263.483 130.951 265.559 124.017 266.131 121.787C266.702 119.558 267.62 106.692 267.482 103.287C267.341 99.7657 265.648 92.8665 265.648 92.8665L252.094 93.929L256.643 117.121C256.643 117.121 255.857 125.589 251.67 132.486L246.207 134.507C241.342 133.281 237.685 129.253 236.936 124.291L235.5 114.777L235.425 92.2182L235.423 92.2144Z" fill="white"/>
<path d="M186.226 104.113L191.196 88.7303L177.666 86.369L176.292 93.4201L163.06 123.299L162.082 123.112L163.24 116.57C161.862 111.844 158.814 102.439 154.186 91.3588L143.652 95.843C143.652 95.843 153.688 116.996 156.692 123.274L161.792 126.872L159.284 135.38C158.966 141.471 161.019 151.921 161.019 151.921L173.413 150.784L169.004 134.69L168.316 127.568C171.443 125.031 186.225 104.115 186.225 104.115L186.226 104.113Z" fill="white"/>
<path d="M251.235 3.65779L247.828 7.14426L216.1 9.38894L218.865 25.6012L241.805 16.8497L244.382 15.8469L244.867 16.6981L240.692 19.5809C238.827 22.7511 236.05 28.0289 235.17 33.8408C233.782 42.9929 234.82 64.7561 234.82 64.7561L249.416 62.1901L244.549 26.3574L248.095 15.5355L259.779 13.3583L263.354 4.17135L251.235 3.65779Z" fill="white"/>
<path d="M83.816 99.743L80.7708 102.861L52.4066 104.867L54.8779 119.36L75.3852 111.536L77.6899 110.64L78.1234 111.399L74.3921 113.976C72.7241 116.81 70.243 121.528 69.455 126.725C68.2161 134.905 69.1415 154.359 69.1415 154.359L82.1884 152.065L77.8385 120.033L81.0088 110.358L91.4544 108.413L94.6489 100.201L83.8159 99.741L83.816 99.743Z" fill="white"/>
<path d="M278.377 7.38351L274.97 10.87L251.352 12.5408L254.007 27.1869L268.827 20.6652L271.504 19.4704L272.021 20.3153L267.851 23.4698C265.98 26.675 263.174 31.8594 262.311 37.5665C260.923 46.7186 261.731 65.2323 261.731 65.2323L276.327 62.6664L271.69 30.0831L275.236 19.2612L286.921 17.084L290.495 7.89707L278.377 7.38351Z" fill="white"/>
<path d="M133.063 13.8436C131.524 19.235 128.399 33.8026 127.045 39.4083C126.76 40.584 123.492 60.6656 123.492 60.6656C120.45 55.8258 113.375 42.9201 112.452 40.9849C111.169 38.2913 107.734 28.0243 106.814 25.51L100.122 26.0444C99.6276 43.98 99.1139 53.972 97.94 58.9374C97.2116 62.0191 95.1619 73.582 95.1619 73.582L110.047 73.6948L110.033 58.6038L109.469 51.0683L107.43 44.4029L108.318 43.9542L111.111 48.8604C115.43 56.3434 125.184 72.7275 127.357 71.9908C130.172 71.0362 132.325 68.6884 132.89 64.877C136.56 40.1649 150.504 18.796 150.504 18.796L133.059 13.8459L133.063 13.8436Z" fill="white"/>
</g>
<defs>
<filter id="filter0_d_241_160" x="0.520508" y="0.581055" width="311.078" height="160.778" filterUnits="userSpaceOnUse" color-interpolation-filters="sRGB">
<feFlood flood-opacity="0" result="BackgroundImageFix"/>
<feColorMatrix in="SourceAlpha" type="matrix" values="0 0 0 0 0 0 0 0 0 0 0 0 0 0 0 0 0 0 127 0" result="hardAlpha"/>
<feOffset dx="1" dy="3"/>
<feGaussianBlur stdDeviation="2"/>
<feComposite in2="hardAlpha" operator="out"/>
<feColorMatrix type="matrix" values="0 0 0 0 0 0 0 0 0 0 0 0 0 0 0 0 0 0 0.4 0"/>
<feBlend mode="normal" in2="BackgroundImageFix" result="effect1_dropShadow_241_160"/>
<feBlend mode="normal" in="SourceGraphic" in2="effect1_dropShadow_241_160" result="shape"/>
</filter>
</defs>
</svg>
