<svg width="119" height="156" viewBox="0 0 119 156" fill="none" xmlns="http://www.w3.org/2000/svg">
<path d="M69.6084 146.401L37.9521 74.9104L76.6648 62.4505L96.3553 137.792L69.6084 146.401Z" fill="#858585"/>
<path d="M84.6493 36.577C86.7982 43.2534 85.7707 55.0291 85.4312 56.4518C82.5319 68.603 73.5435 78.9905 60.7833 83.0975C55.6433 84.7518 50.4061 85.2214 45.3668 84.6578C44.4184 84.5517 35.8823 82.3297 34.4596 81.6978C25.1751 77.5738 17.6202 69.663 14.2628 59.2314C12.9102 55.0291 13.4451 39.3796 13.8439 37.9569C17.08 26.4124 25.8614 16.6593 38.1288 12.7109C39.6761 12.2129 49.0839 10.5387 54.3771 11.2532C68.0542 13.0993 80.139 22.5636 84.6493 36.577Z" fill="#D9D9D9"/>
<path d="M30.3015 57.1761L10.8925 57.2088L14.0642 67.0629L29.7273 67.4591L56.6886 60.7233L76.7851 50.7596L89.6286 41.1884L86.457 31.3343L64.791 46.0754L30.3015 57.1761Z" fill="#858585"/>
<rect x="60.0527" y="93.1296" width="11.0914" height="13.3097" transform="rotate(-17.8411 60.0527 93.1296)" fill="#D9D9D9"/>
</svg>
