<svg width="128" height="117" viewBox="0 0 128 117" fill="none" xmlns="http://www.w3.org/2000/svg">
<path d="M9.43004 60.5304C9.73017 35.0193 25.8122 17.6368 33.8156 12.1344L44.8446 4.71999L58.641 0.744813C82.3513 -3.15689 100.97 10.3836 107.723 17.0115L117.665 29.9546L121.604 39.8964C130.008 62.1061 119.353 85.6664 112.975 94.6703L98.3438 108.926L74.7084 116.43C40.9438 120.181 9.05487 92.4193 9.43004 60.5304Z" fill="#FFD16F"/>
<path d="M99.9268 3.41052L107.488 6.78983L111.408 3.50918L121.862 4.30568L127.556 13.7546L123.72 30.4988L109.841 37.9255L94.3263 31.6578L88.5391 19.424L91.246 8.18471L99.9268 3.41052Z" fill="#FA5377"/>
<path d="M11.3877 72.4406L18.9484 75.8199L22.8688 72.5392L33.3231 73.3357L39.017 82.7846L35.1811 99.5288L21.3023 106.956L5.78721 100.688L0 88.454L2.70692 77.2147L11.3877 72.4406Z" fill="#FA5377"/>
<path d="M99.9268 79.1937L107.488 82.573L111.408 79.2924L121.862 80.0889L127.556 89.5378L123.72 106.282L109.841 113.709L94.3263 107.441L88.5391 95.2072L91.246 83.9679L99.9268 79.1937Z" fill="#FA5377"/>
<path d="M96.0419 57.0592L90.0392 52.5573H82.1608L76.1582 57.0592" stroke="#373636" stroke-width="4"/>
<path d="M36.7658 57.0592L42.7684 52.5573H50.6468L56.6494 57.0592" stroke="#373636" stroke-width="4"/>
<path d="M76.5336 76.9426L70.8707 81.4446L63.4382 81.4446L57.7754 76.9426" stroke="#373636" stroke-width="4"/>
</svg>
