<svg width="137" height="117" viewBox="0 0 137 117" fill="none" xmlns="http://www.w3.org/2000/svg">
<path d="M1.19382 36.7804C2.13991 54.8179 18.2211 60.5141 18.2211 60.5141V117H39.0323V60.5141C44.708 58.2357 51.3297 48.1725 51.3297 48.1725C51.3297 48.1725 55.1132 33.4577 52.2757 21.1163C48.4918 -1.66801 23.4238 -4.51604 11.5994 5.45207C2.13978 13.4266 0.24773 18.743 1.19382 36.7804Z" fill="#CCE3CC"/>
<path d="M73.5597 30.6096L75.4516 1.17996H80.6544L87.2761 21.1162L92.0059 24.9136H100.047L102.411 1.17996H109.506L114.236 24.9136L120.858 23.0149L127.952 1.17996H133.155C133.155 1.17996 137.412 14.9455 136.939 25.863C136.466 36.7804 131.736 47.2232 131.736 47.2232C131.736 47.2232 126.439 55.0314 116.601 55.7378V117H98.1546V55.3892C93.6485 54.8923 88.9904 53.7201 84.4382 51.0205C74.0327 44.8498 73.5597 30.6096 73.5597 30.6096Z" fill="#CCE3CC"/>
</svg>
