<svg width="566" height="265" viewBox="0 0 566 265" fill="none" xmlns="http://www.w3.org/2000/svg">
<g clip-path="url(#clip0_210_693)">
<path d="M82.5256 44.4119L94.2468 26.7045C94.2468 26.7045 77.8214 -1.53211 49.9783 0.769406C37.4774 1.80396 25.9099 7.62896 20.1749 14.2374C14.4398 20.8458 1.57534 35.8244 0.724458 71.8464C0.450825 83.4364 10.1067 106.137 10.1067 106.137L23.6084 114.919C23.6084 114.919 34.6437 118.982 39.5091 118.859C44.3707 118.735 57.2165 117.982 61.5796 115.984C65.9427 113.99 88.9766 103.468 94.4605 99.5995C94.4605 99.5995 89.3664 84.6659 81.7797 78.2037C81.7797 78.2037 61.8907 95.2326 53.8129 106.328L31.4688 100.953C28.9798 95.0677 26.0186 82.4956 25.6887 78.4548C23.2186 48.1191 42.0242 18.9191 42.0242 18.9191C42.0242 18.9191 46.541 13.3752 53.6667 14.1249C53.6667 14.1249 60.3051 17.6634 72.3 36.1842C74.4703 39.5353 82.5256 44.4157 82.5256 44.4157V44.4119Z" fill="#F0F0F0"/>
<path d="M112.017 9.74284L119.645 30.4677L139.039 19.0913C146.12 17.1047 149.261 25.4261 152.073 32.5068C161.788 56.9426 149.111 86.5999 134.17 93.883L116.107 87.462L109.862 68.3677L122.355 38.2419L99.7863 31.015C99.7863 31.015 91.4837 56.594 91.1276 62.6589C90.8389 67.5655 90.2467 76.7229 96.5627 85.2729C102.879 93.8268 109.255 100.409 109.255 100.409L125.44 104.885C125.44 104.885 147.62 104.603 157.144 94.6102C158.767 92.9047 170.331 69.957 172.378 62.1828C175.196 51.4774 168.314 19.766 156.106 8.92569C152.804 5.99445 141.446 4.08277 137.079 4.74249L112.017 9.75034V9.74284Z" fill="#F0F0F0"/>
<path d="M332.124 19.335L334.339 41.3306H284.219L286.603 61.898L303.542 59.6378C317.756 58.472 331.505 64.4732 331.505 64.4732L326.16 83.9086L288.477 76.4493L290.007 123.848L264.45 120.808L272.449 35.1158L282.45 20.0135L332.116 19.3313L332.124 19.335Z" fill="#F0F0F0"/>
<path d="M390.932 31.3711V12.7678L343.785 13.8736C343.785 13.8736 344.414 27.2891 343.785 32.4994C343.155 37.7096 341.573 48.5987 340.786 63.9109C339.995 79.223 339.114 109.101 339.114 109.101L353.887 115.841L408.133 109.218L405.431 86.3825L360.251 99.1383L357.95 64.4619C357.95 64.4619 398.92 73.6567 408.864 71.6738L407.286 51.3125C407.286 51.3125 386.52 53.9964 374.135 52.5757C361.751 51.1551 357.204 52.0322 357.204 52.0322L356.252 27.7464L390.932 31.3748V31.3711Z" fill="#F0F0F0"/>
<path d="M566 8.44222L546.213 4.24402L539.795 29.2683L541.276 51.6762L529.813 117.101L559.763 113.843L560.299 64.5331C557.267 46.5634 555.887 43.2048 556.423 39.3402L559.763 32.2857L566.004 8.43847L566 8.44222Z" fill="#F0F0F0"/>
<path d="M165.196 169.706L172.014 188.234L189.351 178.064C195.682 176.288 198.485 183.728 201.001 190.056C209.686 211.901 198.354 238.414 184.995 244.921L168.847 239.178L163.262 222.108L174.428 195.176L154.254 188.714C154.254 188.714 146.833 211.579 146.514 217.003C146.255 221.388 145.727 229.575 151.376 237.218C157.021 244.864 162.722 250.746 162.722 250.746L177.191 254.745C177.191 254.745 197.016 254.494 205.532 245.558C206.983 244.036 217.321 223.521 219.15 216.568C221.669 206.998 215.518 178.649 204.603 168.96C201.649 166.339 191.498 164.63 187.596 165.222L165.192 169.698L165.196 169.706Z" fill="#F0F0F0"/>
<path d="M343.143 169.706L349.962 188.234L367.298 178.064C373.629 176.288 376.433 183.728 378.948 190.056C387.633 211.901 376.302 238.414 362.942 244.921L346.794 239.178L341.209 222.108L352.376 195.176L332.202 188.714C332.202 188.714 324.78 211.579 324.461 217.003C324.203 221.388 323.674 229.575 329.323 237.218C334.968 244.864 340.669 250.746 340.669 250.746L355.138 254.745C355.138 254.745 374.963 254.494 383.48 245.558C384.93 244.036 395.268 223.521 397.098 216.568C399.617 206.998 393.465 178.649 382.55 168.96C379.596 166.339 369.446 164.63 365.544 165.222L343.14 169.698L343.143 169.706Z" fill="#F0F0F0"/>
<path d="M424.21 163.727L398.215 164.443L406.574 231.363C406.574 231.363 410.232 243.298 418.509 248.111C426.785 252.924 433.99 260.379 455.082 248.111C470.941 238.886 475.679 226.359 477.025 222.318C478.37 218.277 481.744 194.651 481.935 188.35C482.134 181.832 479.911 168.877 479.911 168.877L454.756 169.068L460.123 212.467C460.123 212.467 457.567 227.993 448.938 240.175L438.593 243.193C429.773 240.295 423.55 232.382 422.816 223.128L421.406 205.379L424.214 163.734L424.21 163.727Z" fill="#F0F0F0"/>
<path d="M331.857 179.264L343.039 151.522L318.374 145.397L314.918 158.232L286.596 211.65L284.815 211.178L287.806 199.254C285.88 190.352 281.483 172.596 274.387 151.541L254.359 158.442C254.359 158.442 270.121 198.793 274.844 210.773L283.788 218.079L278.049 233.454C276.666 244.655 279.091 264.21 279.091 264.21L302.114 263.73L296.079 233.451L295.738 220.215C301.84 215.942 331.854 179.268 331.854 179.268L331.857 179.264Z" fill="#F0F0F0"/>
<path d="M464.959 2.34729L458.216 8.33722H399.362L402.35 38.6205L445.831 25.4636L450.719 23.9493L451.502 25.5836L443.421 30.359C439.564 35.9666 433.75 45.3451 431.366 55.9568C427.61 72.6671 426.684 112.97 426.684 112.97L453.958 110.14L449.654 43.3697L457.612 23.8593L479.462 21.3666L487.258 4.87745L464.959 2.34729Z" fill="#F0F0F0"/>
<path d="M143.414 157.827L137.387 163.183H84.7744L87.4433 190.254L126.314 178.492L130.685 177.139L131.386 178.597L124.163 182.866C120.714 187.878 115.519 196.263 113.386 205.75C110.031 220.687 109.199 256.713 109.199 256.713L133.578 254.183L129.733 194.494L136.847 177.052L156.38 174.826L163.348 160.087L143.414 157.823V157.827Z" fill="#F0F0F0"/>
<path d="M514.565 12.7678L507.822 18.7578H464.015L467.002 46.136L495.205 36.0341L500.303 34.1786L501.146 35.8054L493.038 41.0832C489.166 46.7545 483.311 55.9568 480.972 66.3773C477.216 83.0876 476.291 117.363 476.291 117.363L503.564 114.533L499.261 53.7902L507.219 34.2798L529.068 31.7872L536.865 15.298L514.565 12.7678Z" fill="#F0F0F0"/>
<path d="M245.524 5.71704C241.978 15.4666 234.309 41.9452 231.078 52.1146C230.4 54.2475 221.745 90.8842 221.745 90.8842C216.763 81.5545 205.39 56.8114 203.94 53.1192C201.923 47.9802 196.923 28.5822 195.555 23.8218L183.132 23.9342C179.879 56.9725 177.626 75.3472 174.811 84.3583C173.064 89.9509 167.771 111.024 167.771 111.024L195.228 113.176L197.174 85.3216L197.118 71.3401L194.224 58.7718L195.922 58.0596L200.435 67.4793C207.429 81.8544 223.293 113.367 227.401 112.291C232.72 110.897 237.001 106.845 238.541 99.8841C248.542 54.7535 277.067 17.1346 277.067 17.1346L245.517 5.72079L245.524 5.71704Z" fill="#F0F0F0"/>
</g>
<defs>
<clipPath id="clip0_210_693">
<rect width="565.284" height="263.572" fill="white" transform="translate(0.716797 0.634277)"/>
</clipPath>
</defs>
</svg>
