<svg width="117" height="137" viewBox="0 0 117 137" fill="none" xmlns="http://www.w3.org/2000/svg">
<path d="M27.2544 31.0393H73.891L101.661 35.83C107.667 37.7463 118.874 47.7877 115.652 72.6229C112.43 97.4581 83.4883 126.088 70.9106 132.859L52.8589 136.092C41.8357 132.962 18.0967 113.785 11.1436 99.8343C4.19054 85.8837 -0.54077 63.9316 0.589814 53.6475L27.2544 31.0393Z" fill="#FA5377"/>
<path d="M25.1348 13.4095L53.5407 21.0747L53.1168 1.52846L64.5639 0.570312L62.0201 21.0747L85.3384 11.3016L79.4028 22.6077L101.873 29.3147L74.5272 37.1715L69.4396 50.0107L43.7894 41.0041H10.2959L28.9505 27.5901L25.1348 13.4095Z" fill="#40F5A6"/>
<ellipse cx="97.3457" cy="64.093" rx="4.74227" ry="2.84536" transform="rotate(99.0473 97.3457 64.093)" fill="#E03C5F"/>
<ellipse cx="83.1191" cy="66.9385" rx="4.74227" ry="2.84536" transform="rotate(99.0473 83.1191 66.9385)" fill="#E03C5F"/>
<ellipse cx="87.8613" cy="80.2168" rx="4.74227" ry="2.84536" transform="rotate(99.0473 87.8613 80.2168)" fill="#E03C5F"/>
</svg>
