<svg width="150" height="149" viewBox="0 0 150 149" fill="none" xmlns="http://www.w3.org/2000/svg">
<path d="M73.6149 0.74585L56.0685 20.6634C47.5324 20.6634 35.2025 19.7149 29.0376 17.3438C29.0376 23.7933 27.6149 33.9417 25.718 40.1067L3.42935 50.5397L15.285 73.7768C15.285 77.8741 5.22806 93.8874 0.822868 100.902L0.583984 101.282C5.13656 101.282 22.0823 110.45 29.0376 115.983V138.272L54.6459 130.684C59.1984 132.96 67.9242 143.646 70.7696 148.23L94.4809 133.055L118.192 136.375C118.35 130.21 119.615 120.251 121.986 111.715C129.099 106.024 138.9 102.705 144.749 100.808C138.679 92.4613 134.632 78.361 132.893 73.7768L149.017 57.1789L125.306 45.3232C123.409 39.6325 121.038 24.2991 120.089 17.3438C115.157 18.8613 100.014 20.1892 93.0582 20.6634C87.7469 18.0077 77.883 6.9108 73.6149 0.74585Z" fill="#FF8563"/>
<path d="M99.073 120.538C79.2099 130.443 59.3665 124.904 51.9276 120.896L41.8069 115.307L33.2481 106.209C20.8068 89.4092 23.8878 69.619 26.3339 61.759L32.4005 48.9215L38.5295 41.9223C52.3789 26.593 74.8468 25.4769 84.3495 26.835L101.197 32.4938L116.396 47.8044C132.716 72.4452 123.902 108.157 99.073 120.538Z" fill="#FFE882"/>
</svg>
