<svg width="461" height="58" viewBox="0 0 461 58" fill="none" xmlns="http://www.w3.org/2000/svg">
<path d="M37.6277 21.1355L43.0188 12.9911C43.0188 12.9911 35.464 0.00377107 22.6577 1.06234C16.908 1.53818 11.5875 4.21737 8.94974 7.25688C6.31193 10.2964 0.394963 17.1857 0.00360184 33.7539C-0.122254 39.0847 4.31892 49.5256 4.31892 49.5256L10.529 53.5651C10.529 53.5651 15.6046 55.434 17.8424 55.3771C20.0785 55.3202 25.9869 54.9736 27.9937 54.0547C30.0005 53.1375 40.5948 48.2981 43.1171 46.5188C43.1171 46.5188 40.7741 39.6502 37.2846 36.6779C37.2846 36.6779 28.1368 44.5103 24.4214 49.6135L14.1443 47.1412C12.9995 44.4345 11.6375 38.652 11.4858 36.7934C10.3497 22.8406 18.9993 9.41023 18.9993 9.41023C18.9993 9.41023 21.0768 6.86035 24.3542 7.20516C24.3542 7.20516 27.4075 8.83267 32.9245 17.3512C33.9227 18.8925 37.6277 21.1373 37.6277 21.1373V21.1355Z" fill="#F0F0F0"/>
<path d="M51.1929 5.18947L54.7013 14.7218L63.6216 9.48927C66.8783 8.57552 68.3231 12.4029 69.6161 15.6597C74.0849 26.8988 68.2541 40.5396 61.382 43.8894L53.0738 40.9361L50.2015 32.1537L55.9478 18.2975L45.5673 14.9735C45.5673 14.9735 41.7485 26.7385 41.5847 29.528C41.4519 31.7848 41.1795 35.9967 44.0846 39.9292C46.9896 43.8635 49.9222 46.891 49.9222 46.891L57.3667 48.9495C57.3667 48.9495 67.568 48.8202 71.9488 44.2239C72.6953 43.4394 78.014 32.8847 78.9554 29.309C80.2519 24.3851 77.0865 9.7996 71.4712 4.81363C69.9523 3.46541 64.7284 2.58614 62.7199 2.88958L51.1929 5.19292V5.18947Z" fill="#F0F0F0"/>
<path d="M152.429 9.60133L153.448 19.7181H130.395L131.492 29.178L139.283 28.1384C145.821 27.6022 152.144 30.3624 152.144 30.3624L149.686 39.3017L132.354 35.8708L133.057 57.6715L121.303 56.2733L124.982 16.8596L129.582 9.91339L152.425 9.59961L152.429 9.60133Z" fill="#F0F0F0"/>
<path d="M179.478 15.1373V6.58081L157.793 7.08941C157.793 7.08941 158.082 13.2598 157.793 15.6563C157.503 18.0527 156.776 23.0611 156.413 30.1039C156.05 37.1466 155.645 50.8891 155.645 50.8891L162.439 53.989L187.39 50.9425L186.147 40.4396L165.366 46.3066L164.308 30.3573C164.308 30.3573 183.152 34.5864 187.726 33.6744L187 24.3093C187 24.3093 177.449 25.5437 171.752 24.8903C166.056 24.2369 163.965 24.6403 163.965 24.6403L163.527 13.4701L179.478 15.139V15.1373Z" fill="#F0F0F0"/>
<path d="M260 4.5911L250.898 2.66016L247.947 14.17L248.628 24.4764L243.355 54.5681L257.131 53.0699L257.377 30.3899C255.982 22.1248 255.348 20.58 255.595 18.8025L257.131 15.5578L260.001 4.58938L260 4.5911Z" fill="#F0F0F0"/>
<path d="M213.526 1.78784L210.425 4.54289H183.355L184.73 18.4715L204.729 12.4201L206.977 11.7236L207.337 12.4753L203.62 14.6717C201.846 17.2509 199.172 21.5645 198.075 26.4453C196.348 34.1312 195.922 52.6682 195.922 52.6682L208.466 51.3666L206.487 20.6559L210.147 11.6822L220.197 10.5357L223.783 2.95158L213.526 1.78784Z" fill="#F0F0F0"/>
<path d="M236.342 6.58081L233.241 9.33586H213.092L214.466 21.9284L227.438 17.282L229.782 16.4286L230.17 17.1769L226.441 19.6043C224.66 22.2128 221.967 26.4454 220.891 31.2383C219.164 38.9241 218.738 54.6889 218.738 54.6889L231.282 53.3873L229.303 25.4489L232.963 16.4752L243.013 15.3287L246.599 7.74455L236.342 6.58081Z" fill="#F0F0F0"/>
<path d="M112.598 3.33789C110.967 7.82217 107.44 20.0009 105.954 24.6783C105.641 25.6593 101.661 42.5102 101.661 42.5102C99.3694 38.219 94.1386 26.8385 93.4714 25.1403C92.5438 22.7766 90.2439 13.8546 89.6146 11.6651L83.9011 11.7168C82.4046 26.9127 81.3685 35.364 80.0737 39.5086C79.2703 42.0809 76.8359 51.7736 76.8359 51.7736L89.4647 52.7632L90.3594 39.9517L90.3336 33.521L89.0026 27.7402L89.7836 27.4126L91.8594 31.7452C95.0765 38.357 102.373 52.8511 104.262 52.3563C106.709 51.715 108.678 49.8512 109.386 46.6497C113.986 25.892 127.106 8.58937 127.106 8.58937L112.595 3.33961L112.598 3.33789Z" fill="#F0F0F0"/>
<path d="M314.989 11.1804L318.125 19.7025L326.099 15.0251C329.011 14.2079 330.3 17.6301 331.457 20.5404C335.452 30.5882 330.24 42.7824 324.095 45.7754L316.668 43.1341L314.099 35.2828L319.235 22.8954L309.956 19.9231C309.956 19.9231 306.543 30.4399 306.396 32.9346C306.277 34.9518 306.034 38.7171 308.632 42.2325C311.229 45.7495 313.851 48.4546 313.851 48.4546L320.506 50.2941C320.506 50.2941 329.624 50.1786 333.542 46.0685C334.209 45.3685 338.964 35.9327 339.805 32.7346C340.964 28.3331 338.134 15.2941 333.114 10.8374C331.755 9.63224 327.087 8.84607 325.292 9.11847L314.987 11.177L314.989 11.1804Z" fill="#F0F0F0"/>
<path d="M396.836 11.1804L399.972 19.7025L407.945 15.0251C410.857 14.2079 412.147 17.6301 413.304 20.5404C417.298 30.5882 412.087 42.7824 405.942 45.7754L398.515 43.1341L395.946 35.2828L401.082 22.8954L391.803 19.9231C391.803 19.9231 388.389 30.4399 388.243 32.9346C388.124 34.9518 387.881 38.7171 390.479 42.2325C393.075 45.7495 395.698 48.4546 395.698 48.4546L402.353 50.2941C402.353 50.2941 411.471 50.1786 415.388 46.0685C416.055 45.3685 420.81 35.9327 421.652 32.7346C422.81 28.3331 419.981 15.2941 414.961 10.8374C413.602 9.63224 408.933 8.84607 407.139 9.11847L396.834 11.177L396.836 11.1804Z" fill="#F0F0F0"/>
<path d="M434.121 8.43066L422.165 8.75996L426.01 39.5396C426.01 39.5396 427.692 45.029 431.499 47.2427C435.306 49.4563 438.619 52.8855 448.321 47.2427C455.615 42.9997 457.794 37.2379 458.413 35.3794C459.032 33.5209 460.584 22.6541 460.672 19.756C460.763 16.7579 459.741 10.7995 459.741 10.7995L448.171 10.8874L450.64 30.8486C450.64 30.8486 449.464 37.9896 445.495 43.5928L440.737 44.9807C436.68 43.648 433.818 40.0085 433.48 35.7518L432.832 27.5884L434.123 8.43411L434.121 8.43066Z" fill="#F0F0F0"/>
<path d="M391.644 15.5769L396.787 2.81711L385.442 0L383.853 5.90317L370.826 30.4727L370.007 30.2555L371.383 24.7713C370.497 20.6766 368.474 12.5098 365.211 2.82573L355.999 5.99972C355.999 5.99972 363.249 24.5592 365.421 30.0693L369.535 33.4295L366.895 40.5016C366.259 45.653 367.374 54.6475 367.374 54.6475L377.964 54.4268L375.188 40.4998L375.031 34.4122C377.838 32.4468 391.642 15.5786 391.642 15.5786L391.644 15.5769Z" fill="#F0F0F0"/>
<path d="M304.971 5.71705L302.199 8.18073H278L279.228 20.6319L297.106 15.2218L299.116 14.5994L299.439 15.2701L296.116 17.2338C294.53 19.5388 292.141 23.3955 291.16 27.7591C289.617 34.6295 289.234 51.1994 289.234 51.1994L300.447 50.0357L298.678 22.5818L301.951 14.5597L310.935 13.5357L314.14 6.75666L304.971 5.71533V5.71705Z" fill="#F0F0F0"/>
</svg>
